<svg width="24" height="24" viewBox="0 0 24 24" fill="none" xmlns="http://www.w3.org/2000/svg">
    <path fill-rule="evenodd" clip-rule="evenodd" d="M22.1193 5.83016C22.2233 5.88217 22.314 5.95739 22.3844 6.05C22.454 6.14255 22.5012 6.24996 22.5223 6.36382C22.5435 6.47767 22.538 6.59488 22.5062 6.70625L20.0312 15.3688C19.8953 15.8383 19.6108 16.2512 19.2203 16.5453C19.1898 16.5683 19.1588 16.5904 19.1273 16.6117C18.8624 16.7911 18.5632 16.9115 18.25 16.9663C18.1237 16.9883 17.9951 16.9997 17.8656 17H16.4472H10.3028H8.88437C8.75486 16.9997 8.62629 16.9883 8.5 16.9663C8.18682 16.9115 7.88764 16.7911 7.62268 16.6117C7.59118 16.5904 7.56018 16.5683 7.52969 16.5453C7.13921 16.2512 6.85466 15.8383 6.71875 15.3688L4.53961 7.75L4.24375 6.71563V6.69687L4.08954 6.1603L3.32706 3.50717L3.32544 3.50152L3.325 3.5H3.32245H3.31956H2.75001H2.5H1.75C1.55109 3.5 1.36032 3.42098 1.21967 3.28033C1.07902 3.13968 1 2.94891 1 2.75C1 2.55109 1.07902 2.36032 1.21967 2.21967C1.36032 2.07902 1.55109 2 1.75 2H2.5H2.75001H3.325C3.65078 2.00118 3.96744 2.10774 4.22766 2.30375C4.48726 2.49929 4.67679 2.77339 4.7681 3.08527L4.76875 3.0875L5.52812 5.75H6.05258H21.7844C21.9007 5.75072 22.0153 5.77814 22.1193 5.83016ZM8.63991 14.8127L6.61981 7.75H20.128L18.1101 14.8127L18.1096 14.8145C18.0938 14.8677 18.0613 14.9144 18.017 14.9478C17.9725 14.9813 17.9183 14.9996 17.8626 15H8.8874C8.83167 14.9996 8.77753 14.9813 8.733 14.9478C8.6886 14.9144 8.65612 14.8675 8.64035 14.8143L8.63991 14.8127ZM18.25 18.5C18.5765 18.5 18.8921 18.6065 19.1502 18.8002C19.2066 18.8425 19.2602 18.8889 19.3107 18.9393C19.592 19.2206 19.75 19.6022 19.75 20C19.75 20.2967 19.662 20.5867 19.4972 20.8334C19.3324 21.08 19.0981 21.2723 18.824 21.3858C18.5499 21.4994 18.2483 21.5291 17.9574 21.4712C17.6664 21.4133 17.3991 21.2704 17.1893 21.0607C16.9796 20.8509 16.8367 20.5836 16.7788 20.2926C16.7209 20.0017 16.7506 19.7001 16.8642 19.426C16.9292 19.2691 17.0199 19.1252 17.132 19C17.2156 18.9064 17.3112 18.8233 17.4166 18.7528C17.5548 18.6604 17.7067 18.5922 17.8656 18.5501L17.8688 18.5492C17.9926 18.5167 18.1207 18.5 18.25 18.5ZM9.56066 18.9393C9.5804 18.9591 9.59952 18.9793 9.61804 19C9.86336 19.2743 10 19.6301 10 20C10 20.2967 9.91203 20.5867 9.7472 20.8334C9.58238 21.08 9.34811 21.2723 9.07402 21.3858C8.79994 21.4994 8.49834 21.5291 8.20736 21.4712C7.91639 21.4133 7.64912 21.2704 7.43934 21.0607C7.22956 20.8509 7.0867 20.5836 7.02882 20.2926C6.97094 20.0017 7.00065 19.7001 7.11418 19.426C7.21723 19.1772 7.38515 18.9612 7.59976 18.8002C7.62158 18.7838 7.64388 18.768 7.66664 18.7528C7.91332 18.588 8.20333 18.5 8.5 18.5C8.62976 18.5 8.75778 18.5168 8.88116 18.5492L8.88437 18.5501C9.13802 18.6173 9.3719 18.7506 9.56066 18.9393ZM17.75 20C17.75 19.934 17.7631 19.869 17.7881 19.8087C17.8005 19.7785 17.816 19.7496 17.8343 19.7222C17.8709 19.6674 17.9179 19.6206 17.9722 19.5843C17.9993 19.5662 18.0283 19.5507 18.0587 19.5381C18.1196 19.5128 18.1847 19.5 18.25 19.5C18.2826 19.5 18.3153 19.5032 18.3475 19.5096C18.4445 19.5289 18.5336 19.5765 18.6036 19.6464C18.6735 19.7164 18.7211 19.8055 18.7404 19.9025C18.7468 19.9347 18.75 19.9674 18.75 20C18.75 20.0653 18.7372 20.1304 18.7119 20.1913C18.6993 20.2217 18.6838 20.2507 18.6657 20.2778C18.6294 20.3321 18.5826 20.3791 18.5278 20.4157C18.5004 20.434 18.4715 20.4495 18.4413 20.4619C18.381 20.4869 18.316 20.5 18.25 20.5C18.217 20.5 18.1843 20.4967 18.1525 20.4904C18.0562 20.4712 17.9669 20.424 17.8964 20.3536C17.826 20.2831 17.7788 20.1938 17.7596 20.0975C17.7533 20.0657 17.75 20.033 17.75 20ZM8.77778 20.4157C8.75042 20.434 8.72146 20.4495 8.69134 20.4619C8.63097 20.4869 8.56598 20.5 8.5 20.5C8.467 20.5 8.43435 20.4967 8.40245 20.4904C8.30617 20.4712 8.21688 20.424 8.14645 20.3536C8.07601 20.2831 8.02876 20.1938 8.0096 20.0975C8.00326 20.0657 8 20.033 8 20C8 19.934 8.01305 19.869 8.03806 19.8087C8.05053 19.7785 8.06598 19.7496 8.08426 19.7222C8.12092 19.6674 8.16788 19.6206 8.22221 19.5843C8.24932 19.5662 8.27825 19.5507 8.30866 19.5381C8.36961 19.5128 8.43465 19.5 8.5 19.5C8.53259 19.5 8.56527 19.5032 8.59754 19.5096C8.69454 19.5289 8.78363 19.5765 8.85355 19.6464C8.92348 19.7164 8.9711 19.8055 8.99039 19.9025C8.99681 19.9347 9 19.9674 9 20C9 20.0653 8.98719 20.1304 8.96194 20.1913C8.94934 20.2217 8.93384 20.2507 8.91573 20.2778C8.87943 20.3321 8.83264 20.3791 8.77778 20.4157Z" fill="#565656"/>
</svg>