<svg width="24" height="24" viewBox="0 0 24 24" fill="none" xmlns="http://www.w3.org/2000/svg">
    <path fill-rule="evenodd" clip-rule="evenodd" d="M17.3862 17.6197L17.3867 17.6192C20.2473 15.0661 22 12.2501 22 9.23861C22 7.92924 21.5847 6.65305 20.8129 5.59083C20.0412 4.52861 18.9522 3.73421 17.7 3.32015C16.4478 2.90608 15.0961 2.89336 13.8363 3.28377C13.1734 3.48916 12.5538 3.80065 12 4.20228C11.4462 3.80065 10.8266 3.48916 10.1637 3.28377C8.90389 2.89336 7.55216 2.90608 6.30001 3.32015C5.04786 3.73421 3.95878 4.52861 3.18704 5.59083C2.41529 6.65305 2 7.92924 2 9.23861C2 12.7231 4.39414 15.6046 6.43213 17.4657C8.53964 19.3904 10.6788 20.5962 10.8945 20.7157V20.7158L10.9042 20.7211C11.24 20.904 11.6169 21 12 21C12.3831 21 12.76 20.904 13.0958 20.7211L13.1151 20.7105L13.134 20.6996C14.653 19.8186 16.0778 18.7867 17.3862 17.6197ZM14.3281 4.8457C13.9331 4.9681 13.5588 5.1416 13.2142 5.35996C12.748 5.65538 12.3359 6.03294 12 6.47726C11.6641 6.03294 11.252 5.65538 10.7858 5.35996C10.4412 5.1416 10.0669 4.9681 9.67191 4.8457C8.74252 4.55769 7.74534 4.56707 6.82162 4.87253C5.89791 5.17798 5.09449 5.76402 4.52516 6.54762C3.95584 7.33123 3.64948 8.27268 3.64948 9.23861C3.64948 14.7536 11.3659 19.1028 11.6985 19.2869C11.7908 19.3372 11.8946 19.3636 12 19.3636C12.1054 19.3636 12.2092 19.3372 12.3015 19.2869C13.724 18.4619 15.0581 17.4956 16.2835 16.4028C18.9819 13.9943 20.3505 11.5858 20.3505 9.23861C20.3505 8.27268 20.0441 7.33123 19.4748 6.54762C18.9055 5.76402 18.1021 5.17798 17.1784 4.87253C16.2547 4.56707 15.2575 4.55769 14.3281 4.8457Z" fill="#565656"/>
</svg>