<svg width="24" height="24" viewBox="0 0 24 24" fill="none" xmlns="http://www.w3.org/2000/svg">
    <path fill-rule="evenodd" clip-rule="evenodd" d="M12 2C10.6739 2 9.40215 2.52678 8.46447 3.46447C7.52678 4.40215 7 5.67392 7 7C7 8.32608 7.52678 9.59785 8.46447 10.5355C9.40215 11.4732 10.6739 12 12 12C13.3261 12 14.5979 11.4732 15.5355 10.5355C16.4732 9.59785 17 8.32608 17 7C17 5.67392 16.4732 4.40215 15.5355 3.46447C14.5979 2.52678 13.3261 2 12 2ZM9.87868 4.87868C10.4413 4.31607 11.2044 4 12 4C12.7956 4 13.5587 4.31607 14.1213 4.87868C14.6839 5.44129 15 6.20435 15 7C15 7.79565 14.6839 8.55871 14.1213 9.12132C13.5587 9.68393 12.7956 10 12 10C11.2044 10 10.4413 9.68393 9.87868 9.12132C9.31607 8.55871 9 7.79565 9 7C9 6.20435 9.31607 5.44129 9.87868 4.87868ZM8 14C6.67392 14 5.40215 14.5268 4.46447 15.4645C3.52678 16.4021 3 17.6739 3 19V21C3 21.5523 3.44772 22 4 22C4.55228 22 5 21.5523 5 21V19C5 18.2043 5.31607 17.4413 5.87868 16.8787C6.44129 16.3161 7.20435 16 8 16H16C16.7956 16 17.5587 16.3161 18.1213 16.8787C18.6839 17.4413 19 18.2044 19 19V21C19 21.5523 19.4477 22 20 22C20.5523 22 21 21.5523 21 21V19C21 17.6739 20.4732 16.4021 19.5355 15.4645C18.5979 14.5268 17.3261 14 16 14H8Z" fill="#565656"/>
</svg>