<svg width="120" height="120" viewBox="0 0 120 120" fill="none" xmlns="http://www.w3.org/2000/svg">
    <path fill-rule="evenodd" clip-rule="evenodd" d="M76.0031 21.197C83.8831 24.3759 90.6183 29.7592 95.3576 36.6662C100.096 43.5733 102.625 51.6933 102.625 59.9999H117C117 48.9244 113.628 38.0973 107.309 28.8881C100.991 19.679 92.0111 12.5014 81.5046 8.26272C70.9974 4.02426 59.436 2.91527 48.2823 5.07607C37.1284 7.23686 26.8829 12.5704 18.8414 20.402C10.7999 28.2338 5.32355 38.2121 3.10488 49.0749C0.886203 59.9377 2.02496 71.1975 6.37688 81.4305C10.7292 91.663 18.099 100.409 27.5547 106.562C37.0106 112.716 48.1277 116 59.4999 116V102C50.9707 102 42.6332 99.5372 35.5411 94.9222C28.4491 90.3065 22.9217 83.7471 19.6578 76.0732C16.3937 68.3987 15.5396 59.9533 17.2036 51.8065C18.8677 43.6591 22.9749 36.1753 29.006 30.3016C35.0372 24.4278 42.7214 20.4277 51.087 18.807C59.452 17.1865 68.1237 18.0183 76.0031 21.197Z" fill="url(#paint0_linear_15_12)"/>
    <path fill-rule="evenodd" clip-rule="evenodd" d="M52.9251 75.8702C49.7853 74.6108 47.1017 72.4783 45.2143 69.7425C43.3262 67.0068 42.3182 63.7904 42.3182 60.5001H28C28 66.5323 29.8475 72.429 33.3088 77.4445C36.77 82.4606 41.6897 86.3696 47.4454 88.6783C53.2013 90.9864 59.535 91.5909 65.6453 90.414C71.7557 89.2372 77.3684 86.332 81.7739 82.0669C86.1794 77.8013 89.1792 72.3667 90.3947 66.4504C91.6101 60.534 90.9865 54.4014 88.6021 48.8282C86.2176 43.255 82.1805 38.4916 77.0005 35.1402C71.8199 31.7888 65.7299 30.0002 59.5 30V43.8638C62.8981 43.8638 66.2199 44.8392 69.046 46.6673C71.8708 48.4955 74.0733 51.0938 75.374 54.1334C76.6741 57.1735 77.0145 60.5186 76.3515 63.7454C75.6884 66.9729 74.0523 69.9372 71.6494 72.2638C69.2465 74.5905 66.1849 76.1746 62.8517 76.8166C59.5191 77.4587 56.0642 77.129 52.9251 75.8702Z" fill="url(#paint1_linear_15_12)"/>
    <defs>
        <linearGradient id="paint0_linear_15_12" x1="94.2044" y1="14.6031" x2="15.0361" y2="95.892" gradientUnits="userSpaceOnUse">
            <stop stop-color="#0C8ACB"/>
            <stop offset="0.291667" stop-color="#7EB970"/>
            <stop offset="0.59375" stop-color="#F2E913"/>
            <stop offset="1" stop-color="#21A038"/>
        </linearGradient>
        <linearGradient id="paint1_linear_15_12" x1="85.0359" y1="42.0916" x2="41.9248" y2="86.6158" gradientUnits="userSpaceOnUse">
            <stop stop-color="#0C8ACB"/>
            <stop offset="0.291667" stop-color="#7EB970"/>
            <stop offset="0.59375" stop-color="#F2E913"/>
            <stop offset="1" stop-color="#21A038"/>
        </linearGradient>
    </defs>
</svg>