<svg width="143" height="36" viewBox="0 0 143 36" fill="none" xmlns="http://www.w3.org/2000/svg">
    <path fill-rule="evenodd" clip-rule="evenodd" d="M37.8761 22.0425L38.2888 23.0106L39.1619 25.0587L39.4693 25.7798L39.4956 25.8416L40.0836 27.2209L40.5809 28.3875L40.9363 29.2209L40.9639 29.2858H41.0953L41.1229 29.2209L41.4809 28.3812L41.9755 27.2209L42.5635 25.8416L42.5785 25.8063L42.8887 25.0788L43.759 23.0371L44.1831 22.0425H44.275H46.228H47.1066V23.0371V24.8117V25.8063V26.7596V27.4029V30.054V32.8232H46.228H44.8482H44.8072V30.054V28.5755V27.7751V25.8434V25.8063H44.7142L44.275 26.8604L42.9495 30.0417L42.559 30.9788L42.1227 32.0258L42.1106 32.055L41.9755 32.3793L41.8125 32.7706H40.2468L40.0836 32.3778L39.9497 32.055L39.9364 32.0231L39.5022 30.9767L39.1134 30.0402L37.7843 26.8381L37.3451 25.7798H37.252V25.8168V27.7751V28.5491V30.054V32.8232H37.2125H34.9526V30.054V27.3786V26.7297V25.7798V24.8117V23.0106V22.0425H37.7843H37.8761ZM65.4799 32.8232L65.7442 32.0868L66.3625 30.3649L66.4741 30.054L67.0012 28.5856L67.6815 26.6909L67.8615 26.1898L67.9955 25.8164L68.6759 23.9217L68.7125 23.8195L68.7714 23.6554L69.3505 22.0425H70.8343H70.9218H72.4055L73.0432 23.8209L73.7586 25.8164L73.8617 26.1043L74.7514 28.5856L74.7885 28.6892L75.2778 30.054L75.3892 30.3649L76.0069 32.088L76.2706 32.8232H74.7885H73.8617H73.7303L73.2346 31.3549L72.9003 30.3649H72.3886H71.8346H71.03H70.6931H69.9181H69.3637H68.852L68.517 31.3549L68.0202 32.8232H67.8615H65.4799ZM69.454 28.5856L69.7889 27.5956L70.3909 25.8164L70.5691 25.2898L70.7308 24.8117L70.8236 24.5377L70.8343 24.506H70.9218L70.9326 24.5378L71.025 24.8117L71.1861 25.2887L71.3643 25.8164L71.9651 27.5956L72.2994 28.5856H71.7506H71.03H70.6931H70.0024H69.454ZM80.4518 26.838L80.0126 25.7798H79.9196V25.8168V27.7751V28.5491V30.054V32.8232H79.8801H79.2713H77.6202V32.3605V30.054V28.2177V27.3786V26.7297V25.7798V24.8117V23.0106V22.0425H80.4518H80.5437L80.9564 23.0106L81.8295 25.0586L82.137 25.7798L82.1632 25.8416L82.7513 27.2209L83.2485 28.3875L83.6038 29.2209L83.6314 29.2858H83.7629L83.7905 29.2209L84.1485 28.3812L84.643 27.2209L85.2312 25.8416L85.2462 25.8063L85.5562 25.0788L86.4267 23.0371L86.8506 22.0425H86.9425H89.7742V23.0371V24.8117V25.8063V26.7596V27.4029V28.2115V30.054V32.3612V32.8232H88.1183H87.5158H87.4747V30.054V28.5755V27.7751V25.8434V25.8063H87.3817L86.9425 26.8604L85.617 30.0417L85.2266 30.9787L84.7903 32.0258L84.7782 32.055L84.643 32.3792L84.4801 32.7706H82.9143L82.7513 32.3777L82.6174 32.055L82.6041 32.0231L82.1697 30.9767L81.781 30.0402L80.4518 26.838ZM108.462 29.2743C108.201 29.3095 107.926 29.3274 107.635 29.3279H107.623H107.24H106.091H105.63V30.054V30.2704V32.0971V32.8232H104.911H103.26V32.3605V32.0971V30.054V29.3279V28.2177V27.5012V24.8117V24.732V23.9059V22.0425H105.63H106.091H107.229H107.684C108.294 22.0425 108.839 22.1229 109.32 22.2837L109.339 22.2902C109.521 22.3522 109.694 22.4257 109.857 22.511C110.057 22.6143 110.242 22.7312 110.41 22.8616C110.694 23.0815 110.933 23.34 111.126 23.637L111.146 23.668C111.173 23.7115 111.2 23.7557 111.226 23.8007C111.543 24.348 111.702 24.9797 111.702 25.6956C111.702 26.4116 111.541 27.0433 111.22 27.5906C111.194 27.6361 111.166 27.6805 111.138 27.7241L111.131 27.7337C110.936 28.0293 110.696 28.2865 110.41 28.5056C110.232 28.6418 110.037 28.7633 109.824 28.8699C109.67 28.9474 109.508 29.0151 109.338 29.073L109.33 29.0756C109.061 29.1663 108.772 29.2325 108.462 29.2743ZM107.623 27.4815C107.502 27.4947 107.375 27.5012 107.24 27.5012H106.091H105.63V26.6751V26.5587V24.8117V24.732V23.9059H106.091H107.229C107.39 23.9059 107.542 23.9152 107.684 23.9337C107.945 23.9681 108.174 24.0343 108.368 24.1323C108.4 24.1482 108.432 24.1648 108.462 24.1821C108.592 24.2559 108.706 24.3427 108.803 24.4424L108.811 24.4505C108.899 24.5423 108.974 24.645 109.036 24.7587C109.069 24.8184 109.099 24.8805 109.125 24.9449L109.132 24.9622C109.217 25.1807 109.26 25.4252 109.26 25.6956C109.26 25.9598 109.219 26.2016 109.136 26.4208L109.135 26.4213C109.107 26.4962 109.074 26.5684 109.036 26.638C108.975 26.7496 108.902 26.8515 108.815 26.9435L108.811 26.9478C108.712 27.0523 108.596 27.144 108.462 27.2227C108.432 27.2409 108.4 27.2582 108.368 27.2748C108.16 27.3813 107.911 27.4501 107.623 27.4815ZM116.572 28.4185L116.423 28.2277H116.089H116.073H115.744H115.612V28.8351V29.1176V30.054V30.9969V31.7457V32.8232H113.242V30.054V29.6101V29.1176V28.7252V28.7246V28.2277V26.3484V25.6956V25.4585V24.8117V22.7024V22.682V22.0425H113.443H115.612V22.6103V23.5791V24.8117V25.4585V25.9546V25.9564V26.3484H116.073H116.089L116.423 25.962L116.705 25.6354L116.858 25.4585L118.444 23.6241L119.812 22.0425H121.325H122.762L121.524 23.4584L121.325 23.6852L120.34 24.8117L118.744 26.6368L118.388 27.0433L118.774 27.5311L120.772 30.054L121.325 30.7527L121.87 31.4401L122.965 32.8232H121.325H120.025L118.444 30.8064L117.12 29.1176L116.572 28.4185ZM100.391 28.5856L100.428 28.6892L100.917 30.054L101.029 30.3649L101.647 32.0879L101.91 32.8232H100.428H99.5014H99.37L98.8742 31.3549L98.5399 30.3649H98.0282H97.4744H96.6697H96.3328H95.5579H95.0033H94.4916L94.1568 31.3549L93.6599 32.8232H93.5011H92.6058H91.1195L91.384 32.0868L92.0021 30.3649L92.1138 30.054L92.6058 28.6835L92.641 28.5856L93.5011 26.1901L93.6353 25.8164L94.3523 23.8195L94.9903 22.0425H96.4739H96.5616H98.0452L98.6828 23.8209L99.3982 25.8164L99.5014 26.1043L100.391 28.5856ZM97.6048 27.5956L97.9392 28.5856H97.3904H96.6697H96.3328H95.6421H95.0936L95.4286 27.5956L96.0306 25.8164L96.2087 25.2898L96.3706 24.8117L96.4632 24.5377L96.4739 24.506H96.5616L96.5722 24.5378L96.6648 24.8117L96.8259 25.2888L97.004 25.8164L97.6048 27.5956ZM56.6149 22.0425V23.7213V23.9217H56.2262H55.668H54.262H53.7832H51.8913H51.4303V24.8117V25.6005V26.4906H51.8913H53.3945H54.262H55.668H56.2262V26.6909V28.1747V28.3698H55.668H54.262H53.3945H51.8913H51.4303V29.2598V30.054V30.9439H51.8913H53.8051H54.262H55.668H56.2262H56.6368V31.139V32.8232H55.668H53.8051H51.8913H51.4303H49.9383H49.0597V30.9439V30.054V29.2598V28.3698V26.4906V25.6005V24.8117V23.9217V22.0425H49.9383H51.4303H51.8913H53.7832H55.668H56.6149ZM58.4996 32.8232V31.139V30.9439V30.054V28.3698V28.1747V26.6909V26.4906V24.8117V23.9217V23.7213V22.0425H59.4466H60.8702H61.3313H63.1081H65.9397V23.1834V23.9217H65.6747H63.7019H63.1081H61.3313H60.8702V24.8117V26.6909V30.054V32.8232H59.4685H58.4996ZM131.734 31.139V32.8232H128.903H126.989H126.546H126.528H124.157V31.9203V30.9439V30.054V29.8059V29.2598V28.3698V26.4906V25.6005V24.8117V24.7081V23.9217V23.2092V22.0425H126.489H126.528H126.989H128.881H130.338H131.712V23.7213V23.9217H131.323H130.338H129.359H128.881H126.989H126.528V24.8117V25.6005V26.4906H126.989H128.492H129.359H130.338H131.323V26.6909V28.1747V28.3698H129.359H128.492H126.989H126.528V29.2598V30.054V30.9439H126.989H128.903H129.359H131.323H131.734V31.139ZM133.17 23.9217V23.7213V22.0425H134.544H136.002H136.114H136.603H138.946H139.434H139.547H142.378V23.9217H141.777H139.547H139.434H138.946V24.8117V26.6909V30.054V32.8232H136.603V30.054V26.6909V24.8117V23.9217H136.114H136.002H134.544H134.155H133.771H133.17Z" fill="#632895"/>
    <path fill-rule="evenodd" clip-rule="evenodd" d="M45.2773 12.6756C45.7444 11.8451 45.9779 10.838 45.9779 9.65405C45.9779 8.47018 45.7444 7.46298 45.2773 6.6325C44.8137 5.80201 44.1812 5.16942 43.3794 4.73475C42.5811 4.29653 41.6837 4.07742 40.687 4.07742C39.6829 4.07742 38.7817 4.29653 37.9836 4.73475C37.1853 5.16942 36.5546 5.80201 36.0912 6.6325C35.6278 7.46298 35.396 8.47018 35.396 9.65405C35.396 10.8344 35.6278 11.8398 36.0912 12.6703C36.5546 13.5008 37.1853 14.1352 37.9836 14.5734C38.7817 15.0116 39.6829 15.2307 40.687 15.2307C41.6837 15.2307 42.5811 15.0133 43.3794 14.5787C44.1812 14.1404 44.8137 13.5061 45.2773 12.6756ZM43.1973 7.71389C43.4363 8.24046 43.5559 8.88718 43.5559 9.65405C43.5559 10.4209 43.4363 11.0677 43.1973 11.5942C42.9618 12.1208 42.629 12.5201 42.1987 12.7922C41.7683 13.0644 41.2644 13.2004 40.687 13.2004C40.1095 13.2004 39.6056 13.0644 39.1753 12.7922C38.7449 12.5201 38.4102 12.1208 38.1712 11.5942C37.9357 11.0677 37.8181 10.4209 37.8181 9.65405C37.8181 8.88718 37.9357 8.24046 38.1712 7.71389C38.4102 7.18733 38.7449 6.788 39.1753 6.51588C39.6056 6.24376 40.1095 6.10769 40.687 6.10769C41.2644 6.10769 41.7683 6.24376 42.1987 6.51588C42.629 6.788 42.9618 7.18733 43.1973 7.71389ZM59.0466 13.211L58.7268 13.2375V15.0822H59.3445C60.2531 15.0822 60.9685 14.8985 61.4908 14.5309C62.0166 14.1634 62.3992 13.5945 62.6383 12.824C62.8812 12.0536 63.0318 11.0606 63.0907 9.8449L63.2674 6.0653H66.3956V15.0822H68.7183V4.22585H61.0495L60.8619 9.05506C60.8251 10.0622 60.7424 10.8645 60.6136 11.4617C60.4885 12.0554 60.2991 12.4883 60.0452 12.7604C59.7915 13.029 59.4586 13.1792 59.0466 13.211ZM73.9761 4.22585L70.0755 15.0822H72.6355L73.4736 12.6067H77.5534L78.3899 15.0822H80.9497L77.0547 4.22585H73.9761ZM76.9478 10.815L75.5596 6.70672H75.4713L74.0803 10.815H76.9478ZM89.6697 4.22585L84.7869 11.0535H84.6932V4.22585H82.3099V15.0822H84.3787L89.289 8.24929H89.3717V15.0822H91.7608V4.22585H89.6697ZM89.0296 2.93771C89.5226 2.54544 89.7708 2.0277 89.7745 1.38452H88.136C88.136 1.63543 88.0513 1.85632 87.8821 2.04714C87.7129 2.23798 87.4334 2.3334 87.0435 2.3334C86.6425 2.3334 86.3575 2.23621 86.1883 2.04184C86.0229 1.84747 85.942 1.62837 85.9456 1.38452H84.318C84.318 2.0277 84.5627 2.54544 85.0518 2.93771C85.541 3.32999 86.2049 3.52612 87.0435 3.52612C87.8784 3.52612 88.5406 3.32999 89.0296 2.93771ZM47.7475 4.22585V15.0822H50.1365V10.5976H54.9861V15.0822H57.3696V4.22585H54.9861V8.70519H50.1365V4.22585H47.7475ZM93.7345 4.22585V15.0822H96.1233V10.5976H100.973V15.0822H103.356V4.22585H100.973V8.70519H96.1233V4.22585H93.7345Z" fill="#21A038"/>
    <path fill-rule="evenodd" clip-rule="evenodd" d="M21.6781 8.98842C23.4244 9.69582 24.917 10.8937 25.9673 12.4307C27.0174 13.9677 27.5778 15.7747 27.5778 17.6231H30.7634C30.7634 15.1585 30.0162 12.7492 28.6159 10.6999C27.2158 8.65063 25.2257 7.05341 22.8973 6.11019C20.5688 5.16702 18.0067 4.92024 15.5349 5.40108C13.0631 5.88191 10.7926 7.06876 9.01053 8.81152C7.22847 10.5543 6.01485 12.7747 5.52317 15.192C5.03149 17.6093 5.28385 20.1149 6.24828 22.392C7.21279 24.669 8.84601 26.6152 10.9415 27.9845C13.037 29.3539 15.5007 30.0847 18.0209 30.0847V26.9693C16.1307 26.9693 14.283 26.4213 12.7114 25.3943C11.1397 24.3672 9.91477 22.9075 9.19146 21.1999C8.46811 19.4921 8.27884 17.6127 8.64758 15.7999C9.01636 13.9869 9.92657 12.3215 11.2631 11.0144C12.5997 9.70737 14.3026 8.81723 16.1565 8.45658C18.0102 8.09598 19.932 8.28108 21.6781 8.98842Z" fill="url(#paint0_linear_13_54)"/>
    <path fill-rule="evenodd" clip-rule="evenodd" d="M16.558 21.0771C15.8595 20.7941 15.2624 20.3149 14.8425 19.7001C14.4224 19.0853 14.1981 18.3626 14.1981 17.6232H11.0125C11.0125 18.9787 11.4235 20.3038 12.1936 21.4309C12.9637 22.5581 14.0583 23.4365 15.3389 23.9553C16.6195 24.474 18.0287 24.6098 19.3882 24.3454C20.7477 24.0809 21.9964 23.428 22.9766 22.4696C23.9568 21.511 24.6242 20.2898 24.8946 18.9603C25.1651 17.6308 25.0263 16.2527 24.4958 15.0003C23.9653 13.7479 23.0671 12.6775 21.9146 11.9244C20.762 11.1713 19.407 10.7693 18.0209 10.7693V13.8847C18.7769 13.8847 19.516 14.1039 20.1448 14.5147C20.7733 14.9255 21.2633 15.5094 21.5527 16.1925C21.842 16.8756 21.9177 17.6273 21.7702 18.3525C21.6226 19.0777 21.2586 19.7439 20.724 20.2667C20.1894 20.7895 19.5082 21.1455 18.7666 21.2898C18.0251 21.4341 17.2565 21.36 16.558 21.0771Z" fill="url(#paint1_linear_13_54)"/>
    <defs>
        <linearGradient id="paint0_linear_13_54" x1="25.7117" y1="7.5211" x2="8.09284" y2="25.5373" gradientUnits="userSpaceOnUse">
            <stop stop-color="#0C8ACB"/>
            <stop offset="0.291667" stop-color="#7EB970"/>
            <stop offset="0.59375" stop-color="#F2E913"/>
            <stop offset="1" stop-color="#21A038"/>
        </linearGradient>
        <linearGradient id="paint1_linear_13_54" x1="23.7024" y1="13.4865" x2="14.0119" y2="23.3954" gradientUnits="userSpaceOnUse">
            <stop stop-color="#0C8ACB"/>
            <stop offset="0.291667" stop-color="#7EB970"/>
            <stop offset="0.59375" stop-color="#F2E913"/>
            <stop offset="1" stop-color="#21A038"/>
        </linearGradient>
    </defs>
</svg>