<svg width="143" height="36" viewBox="0 0 143 36" fill="none" xmlns="http://www.w3.org/2000/svg">
    <path fill-rule="evenodd" clip-rule="evenodd" d="M37.8761 22.0427L38.2888 23.0108L39.1619 25.059L39.4693 25.7801L39.4956 25.8418L40.0836 27.2212L40.5809 28.3877L40.9363 29.2211L40.9639 29.2861H41.0953L41.1229 29.2211L41.4809 28.3815L41.9755 27.2212L42.5635 25.8418L42.5785 25.8065L42.8887 25.079L43.759 23.0373L44.1831 22.0427H44.275H46.228H47.1066V23.0373V24.812V25.8065V26.7598V27.4031V30.0542V32.8235H46.228H44.8482H44.8072V30.0542V28.5758V27.7753V25.8436V25.8065H44.7142L44.275 26.8606L42.9495 30.0419L42.559 30.979L42.1227 32.0261L42.1106 32.0553L41.9755 32.3796L41.8125 32.7709H40.2468L40.0836 32.378L39.9497 32.0553L39.9364 32.0233L39.5022 30.977L39.1134 30.0404L37.7843 26.8383L37.3451 25.7801H37.252V25.817V27.7753V28.5493V30.0542V32.8235H37.2125H34.9526V30.0542V27.3789V26.7299V25.7801V24.812V23.0108V22.0427H37.7843H37.8761ZM65.4799 32.8235L65.7442 32.087L66.3625 30.3651L66.4741 30.0542L67.0012 28.5859L67.6815 26.6912L67.8615 26.1901L67.9955 25.8166L68.6759 23.9219L68.7125 23.8197L68.7714 23.6557L69.3505 22.0427H70.8343H70.9218H72.4055L73.0432 23.8211L73.7586 25.8166L73.8617 26.1045L74.7514 28.5859L74.7885 28.6894L75.2778 30.0542L75.3892 30.3651L76.0069 32.0882L76.2706 32.8235H74.7885H73.8617H73.7303L73.2346 31.3551L72.9003 30.3651H72.3886H71.8346H71.03H70.6931H69.9181H69.3637H68.852L68.517 31.3551L68.0202 32.8235H67.8615H65.4799ZM69.454 28.5859L69.7889 27.5959L70.3909 25.8166L70.5691 25.2901L70.7308 24.812L70.8236 24.5379L70.8343 24.5062H70.9218L70.9326 24.5381L71.025 24.812L71.1861 25.289L71.3643 25.8166L71.9651 27.5959L72.2994 28.5859H71.7506H71.03H70.6931H70.0024H69.454ZM80.4518 26.8382L80.0126 25.7801H79.9196V25.817V27.7753V28.5493V30.0542V32.8235H79.8801H79.2713H77.6202V32.3607V30.0542V28.218V27.3789V26.7299V25.7801V24.812V23.0108V22.0427H80.4518H80.5437L80.9564 23.0108L81.8295 25.0588L82.137 25.7801L82.1632 25.8418L82.7513 27.2212L83.2485 28.3877L83.6038 29.2211L83.6314 29.2861H83.7629L83.7905 29.2211L84.1485 28.3815L84.643 27.2212L85.2312 25.8418L85.2462 25.8065L85.5562 25.079L86.4267 23.0373L86.8506 22.0427H86.9425H89.7742V23.0373V24.812V25.8065V26.7598V27.4031V28.2117V30.0542V32.3614V32.8235H88.1183H87.5158H87.4747V30.0542V28.5758V27.7753V25.8436V25.8065H87.3817L86.9425 26.8606L85.617 30.0419L85.2266 30.9789L84.7903 32.0261L84.7782 32.0553L84.643 32.3794L84.4801 32.7709H82.9143L82.7513 32.3779L82.6174 32.0553L82.6041 32.0233L82.1697 30.977L81.781 30.0404L80.4518 26.8382ZM108.462 29.2746C108.201 29.3097 107.926 29.3276 107.635 29.3282H107.623H107.24H106.091H105.63V30.0542V30.2707V32.0974V32.8235H104.911H103.26V32.3607V32.0974V30.0542V29.3282V28.218V27.5014V24.812V24.7322V23.9061V22.0427H105.63H106.091H107.229H107.684C108.294 22.0427 108.839 22.1232 109.32 22.2839L109.339 22.2904C109.521 22.3525 109.694 22.426 109.857 22.5113C110.057 22.6146 110.242 22.7314 110.41 22.8619C110.694 23.0817 110.933 23.3402 111.126 23.6372L111.146 23.6683C111.173 23.7117 111.2 23.7559 111.226 23.8009C111.543 24.3482 111.702 24.9799 111.702 25.6959C111.702 26.4119 111.541 27.0435 111.22 27.5909C111.194 27.6363 111.166 27.6807 111.138 27.7244L111.131 27.7339C110.936 28.0295 110.696 28.2868 110.41 28.5058C110.232 28.6421 110.037 28.7635 109.824 28.8701C109.67 28.9477 109.508 29.0154 109.338 29.0732L109.33 29.0759C109.061 29.1666 108.772 29.2328 108.462 29.2746ZM107.623 27.4818C107.502 27.4949 107.375 27.5014 107.24 27.5014H106.091H105.63V26.6754V26.5589V24.812V24.7322V23.9061H106.091H107.229C107.39 23.9061 107.542 23.9154 107.684 23.934C107.945 23.9683 108.174 24.0345 108.368 24.1325C108.4 24.1484 108.432 24.1651 108.462 24.1824C108.592 24.2562 108.706 24.343 108.803 24.4427L108.811 24.4507C108.899 24.5425 108.974 24.6452 109.036 24.7589C109.069 24.8186 109.099 24.8808 109.125 24.9452L109.132 24.9625C109.217 25.181 109.26 25.4255 109.26 25.6959C109.26 25.9601 109.219 26.2018 109.136 26.421L109.135 26.4216C109.107 26.4965 109.074 26.5686 109.036 26.6383C108.975 26.7499 108.902 26.8518 108.815 26.9437L108.811 26.948C108.712 27.0525 108.596 27.1442 108.462 27.223C108.432 27.2411 108.4 27.2584 108.368 27.275C108.16 27.3815 107.911 27.4503 107.623 27.4818ZM116.572 28.4187L116.423 28.2279H116.089H116.073H115.744H115.612V28.8354V29.1178V30.0542V30.9972V31.746V32.8235H113.242V30.0542V29.6103V29.1178V28.7254V28.7249V28.2279V26.3486V25.6959V25.4587V24.812V22.7026V22.6823V22.0427H113.443H115.612V22.6106V23.5794V24.812V25.4587V25.9548V25.9566V26.3486H116.073H116.089L116.423 25.9623L116.705 25.6357L116.858 25.4587L118.444 23.6244L119.812 22.0427H121.325H122.762L121.524 23.4586L121.325 23.6854L120.34 24.812L118.744 26.637L118.388 27.0435L118.774 27.5313L120.772 30.0542L121.325 30.7529L121.87 31.4404L122.965 32.8235H121.325H120.025L118.444 30.8066L117.12 29.1178L116.572 28.4187ZM100.391 28.5859L100.428 28.6894L100.917 30.0542L101.029 30.3651L101.647 32.0881L101.91 32.8235H100.428H99.5014H99.37L98.8742 31.3551L98.5399 30.3651H98.0282H97.4744H96.6697H96.3328H95.5579H95.0033H94.4916L94.1568 31.3551L93.6599 32.8235H93.5011H92.6058H91.1195L91.384 32.087L92.0021 30.3651L92.1138 30.0542L92.6058 28.6838L92.641 28.5859L93.5011 26.1903L93.6353 25.8166L94.3523 23.8197L94.9903 22.0427H96.4739H96.5616H98.0452L98.6828 23.8211L99.3982 25.8166L99.5014 26.1045L100.391 28.5859ZM97.6048 27.5959L97.9392 28.5859H97.3904H96.6697H96.3328H95.6421H95.0936L95.4286 27.5959L96.0306 25.8166L96.2087 25.2901L96.3706 24.812L96.4632 24.5379L96.4739 24.5062H96.5616L96.5722 24.5381L96.6648 24.812L96.8259 25.2891L97.004 25.8166L97.6048 27.5959ZM56.6149 22.0427V23.7216V23.9219H56.2262H55.668H54.262H53.7832H51.8913H51.4303V24.812V25.6008V26.4908H51.8913H53.3945H54.262H55.668H56.2262V26.6912V28.1749V28.37H55.668H54.262H53.3945H51.8913H51.4303V29.26V30.0542V30.9441H51.8913H53.8051H54.262H55.668H56.2262H56.6368V31.1392V32.8235H55.668H53.8051H51.8913H51.4303H49.9383H49.0597V30.9441V30.0542V29.26V28.37V26.4908V25.6008V24.812V23.9219V22.0427H49.9383H51.4303H51.8913H53.7832H55.668H56.6149ZM58.4996 32.8235V31.1392V30.9441V30.0542V28.37V28.1749V26.6912V26.4908V24.812V23.9219V23.7216V22.0427H59.4466H60.8702H61.3313H63.1081H65.9397V23.1836V23.9219H65.6747H63.7019H63.1081H61.3313H60.8702V24.812V26.6912V30.0542V32.8235H59.4685H58.4996ZM131.734 31.1392V32.8235H128.903H126.989H126.546H126.528H124.157V31.9206V30.9441V30.0542V29.8061V29.26V28.37V26.4908V25.6008V24.812V24.7084V23.9219V23.2094V22.0427H126.489H126.528H126.989H128.881H130.338H131.712V23.7216V23.9219H131.323H130.338H129.359H128.881H126.989H126.528V24.812V25.6008V26.4908H126.989H128.492H129.359H130.338H131.323V26.6912V28.1749V28.37H129.359H128.492H126.989H126.528V29.26V30.0542V30.9441H126.989H128.903H129.359H131.323H131.734V31.1392ZM133.17 23.9219V23.7216V22.0427H134.544H136.002H136.114H136.603H138.946H139.434H139.547H142.378V23.9219H141.777H139.547H139.434H138.946V24.812V26.6912V30.0542V32.8235H136.603V30.0542V26.6912V24.812V23.9219H136.114H136.002H134.544H134.155H133.771H133.17Z" fill="#632895"/>
    <path fill-rule="evenodd" clip-rule="evenodd" d="M37.7843 13.7392L37.0056 14.8235H34.9526V13.592V13.4135V12.8639V12.0542V10.8228V6.81196V4.04272H37.3177V6.11879V6.81196V8.05358V9.57037V10.7592V10.8228H37.4108L37.7843 10.3001L39.1287 8.41894L39.4008 8.03813L40.1493 6.99054L40.2163 6.89683L41.3797 5.2689L41.4992 5.10168L42.256 4.04272H43.4579H44.3309V5.2689V5.46082V5.97343V6.81196V8.03813V12.0542V14.8235H43.4579H41.9603V12.7423V12.0542V10.8074V9.29069V8.09452V8.03813H41.8782L41.4992 8.5659L40.1493 10.4456L39.8785 10.8228L39.1287 11.8671L39.0661 11.9541L37.8899 13.592L37.7843 13.7392ZM82.7321 11.2746C82.4711 11.3099 82.1954 11.3277 81.9055 11.3282H81.8933H81.51H80.3615H79.9004V12.0542V12.2708V14.0974V14.8235H78.4987H77.5298V14.0974V13.1393V12.9442V12.0542V11.3282V10.3701V10.1749V9.50153V8.69121V8.49084V6.81196V6.7323V5.92198V5.90618V5.72161V4.04272H78.4767H79.9004H80.3615H81.499H81.9535C82.5637 4.04272 83.1091 4.12314 83.5896 4.28397L83.6089 4.29046C83.791 4.35242 83.9637 4.426 84.1269 4.51122C84.3273 4.61457 84.5116 4.73149 84.6801 4.86197C84.964 5.08188 85.2026 5.34033 85.396 5.63729L85.4163 5.66901C85.4437 5.71218 85.4701 5.75614 85.4956 5.80091C85.8132 6.34837 85.9719 6.98006 85.9719 7.69596C85.9719 8.41188 85.8114 9.04355 85.4901 9.59102C85.4636 9.6361 85.4363 9.68037 85.4079 9.7238L85.4012 9.73394C85.2064 10.0295 84.966 10.2868 84.6801 10.5058C84.5023 10.6421 84.307 10.7635 84.0941 10.8701C83.9402 10.9477 83.7781 11.0154 83.6077 11.0733L83.599 11.0762C83.3304 11.1668 83.0414 11.2329 82.7321 11.2746ZM81.8933 9.48178C81.7725 9.49495 81.6448 9.50153 81.51 9.50153H80.3615H79.9004V8.67541V8.55897V6.81196V6.7323V5.90618H80.3615H81.499C81.6604 5.90618 81.8119 5.91547 81.9535 5.93407C82.2154 5.96843 82.4435 6.03459 82.6378 6.13254C82.6702 6.14846 82.7016 6.16509 82.7321 6.18245C82.862 6.25625 82.9757 6.34301 83.0733 6.44273L83.0806 6.45043C83.1693 6.5424 83.2443 6.64525 83.3057 6.75897C83.3393 6.81886 83.3692 6.88108 83.3952 6.94558L83.4019 6.96219C83.4874 7.18069 83.5302 7.42528 83.5302 7.69596C83.5302 7.96013 83.4887 8.20187 83.4054 8.42121C83.3771 8.49616 83.3438 8.56851 83.3057 8.63822C83.2453 8.75 83.1718 8.85187 83.0853 8.94383L83.0811 8.94825C82.9818 9.05276 82.8654 9.14438 82.7321 9.22312C82.7016 9.24114 82.6702 9.2585 82.6378 9.27517C82.4295 9.38151 82.1813 9.45038 81.8933 9.48178ZM46.2896 4.04272H47.1626H48.6601V5.72161V6.81196V7.60087V8.49084H49.1212H50.6407H51.4918H53.0057H53.4724V7.60087V6.81196V5.72161V4.04272H54.5333H55.8374V5.92198V6.81196V7.60087V8.49084V8.69121V10.3701V11.2601V12.0542V14.8235H53.4724V13.1393V12.0542V11.2601V10.3701H53.0057H51.4918H50.6407H49.1212H48.6601V11.2601V12.0542V13.1393V14.8235H47.1626H46.2896V12.0542V11.2601V10.3701V8.49084V7.60087V6.81196V4.04272ZM57.365 5.92198V4.04272H58.6691H60.1967H60.3091H60.7975H63.1408H63.6292H63.7418H65.2583H66.5735V5.92198H65.9725H65.2583H63.7418H63.6292H63.1408V6.81196V8.69121V12.0542V14.8235H60.7975V12.0542V8.69121V6.81196V5.92198H60.3091H60.1967H58.6691H57.9659H57.365ZM75.6451 4.04272V5.72161V5.92198H75.2565H74.6981H73.2922H72.8134H70.9217H70.4605V6.81196V7.60087V8.49084H70.9217H72.4249H73.2922H74.6981H75.2565V8.69121V10.1749V10.3701H74.6981H73.2922H72.4249H70.9217H70.4605V11.2601V12.0542V12.9442H70.9217H72.8353H73.2922H74.6981H75.2565H75.667V13.1393V14.8235H74.6981H72.8353H70.9217H70.4605H68.09V12.9442V12.0542V11.2601V10.3701V8.69121V8.49084V7.60087V6.81196V5.92198V4.04272H69.4052H70.4605H70.9217H72.8134H74.6981H75.6451ZM87.5118 11.6104V11.2601V10.7255V10.3701V8.49084V7.69596V7.60087V6.81196V4.7022V4.68276V4.04272H87.7131H89.8823V5.72161V6.81196V7.60087V8.49084H90.3435H91.863H92.714H94.228H94.6946V7.60087V6.81196V5.72161V4.04272H96.1825H97.0597V6.81196V7.60087V8.49084V10.3701V11.2601V12.0542V14.8235H96.1825H94.6946V13.1393V12.0542V11.2601V10.3701H94.228H92.714H91.863H90.3435H89.8823V11.2601V12.0542V13.1393V14.8235H87.5118V12.0542V11.6104ZM106.591 13.1393V14.8235H103.76H101.846H101.385H99.8913H99.0142V12.9442V12.0542V11.2601V10.3701V8.49084V7.60087V6.81196V5.92198V4.04272H99.8913H101.385H101.846H103.738H105.195H106.569V5.72161V5.92198H106.181H105.195H104.216H103.738H101.846H101.385V6.81196V7.60087V8.49084H101.846H103.349H104.216H105.195H106.181V8.69121V10.1749V10.3701H104.216H103.349H101.846H101.385V11.2601V12.0542V12.9442H101.846H103.76H104.216H106.181H106.591V13.1393ZM108.027 5.92198V5.72161V4.04272H109.401H110.859H110.971H111.46H113.803H114.291H114.404H117.236V5.92198H116.635H114.404H114.291H113.803V6.81196V8.69121V12.0542V14.8235H111.46V12.0542V8.69121V6.81196V5.92198H110.971H110.859H109.401H109.012H108.628H108.027Z" fill="#21A038"/>
    <path fill-rule="evenodd" clip-rule="evenodd" d="M21.6781 8.98842C23.4244 9.69582 24.917 10.8937 25.9673 12.4307C27.0174 13.9677 27.5778 15.7747 27.5778 17.6231H30.7634C30.7634 15.1585 30.0162 12.7492 28.6159 10.6999C27.2158 8.65063 25.2257 7.05341 22.8973 6.11019C20.5688 5.16702 18.0067 4.92024 15.5349 5.40108C13.0631 5.88191 10.7926 7.06876 9.01053 8.81152C7.22847 10.5543 6.01485 12.7747 5.52317 15.192C5.03149 17.6093 5.28385 20.1149 6.24828 22.392C7.21279 24.669 8.84601 26.6152 10.9415 27.9845C13.037 29.3539 15.5007 30.0847 18.0209 30.0847V26.9693C16.1307 26.9693 14.283 26.4213 12.7114 25.3943C11.1397 24.3672 9.91477 22.9075 9.19146 21.1999C8.46811 19.4921 8.27884 17.6127 8.64758 15.7999C9.01636 13.9869 9.92657 12.3215 11.2631 11.0144C12.5997 9.70737 14.3026 8.81723 16.1565 8.45658C18.0102 8.09598 19.932 8.28108 21.6781 8.98842Z" fill="url(#paint0_linear_4_43)"/>
    <path fill-rule="evenodd" clip-rule="evenodd" d="M16.558 21.0771C15.8595 20.7941 15.2624 20.3149 14.8425 19.7001C14.4224 19.0853 14.1981 18.3626 14.1981 17.6232H11.0125C11.0125 18.9787 11.4235 20.3038 12.1936 21.4309C12.9637 22.5581 14.0583 23.4365 15.3389 23.9553C16.6195 24.474 18.0287 24.6098 19.3882 24.3454C20.7477 24.0809 21.9964 23.428 22.9766 22.4696C23.9568 21.511 24.6242 20.2898 24.8946 18.9603C25.1651 17.6308 25.0263 16.2527 24.4958 15.0003C23.9653 13.7479 23.0671 12.6775 21.9146 11.9244C20.762 11.1713 19.407 10.7693 18.0209 10.7693V13.8847C18.7769 13.8847 19.516 14.1039 20.1448 14.5147C20.7733 14.9255 21.2633 15.5094 21.5527 16.1925C21.842 16.8756 21.9177 17.6273 21.7702 18.3525C21.6226 19.0777 21.2586 19.7439 20.724 20.2667C20.1894 20.7895 19.5082 21.1455 18.7666 21.2898C18.0251 21.4341 17.2565 21.36 16.558 21.0771Z" fill="url(#paint1_linear_4_43)"/>
    <defs>
        <linearGradient id="paint0_linear_4_43" x1="25.7117" y1="7.5211" x2="8.09284" y2="25.5373" gradientUnits="userSpaceOnUse">
            <stop stop-color="#0C8ACB"/>
            <stop offset="0.291667" stop-color="#7EB970"/>
            <stop offset="0.59375" stop-color="#F2E913"/>
            <stop offset="1" stop-color="#21A038"/>
        </linearGradient>
        <linearGradient id="paint1_linear_4_43" x1="23.7024" y1="13.4865" x2="14.0119" y2="23.3954" gradientUnits="userSpaceOnUse">
            <stop stop-color="#0C8ACB"/>
            <stop offset="0.291667" stop-color="#7EB970"/>
            <stop offset="0.59375" stop-color="#F2E913"/>
            <stop offset="1" stop-color="#21A038"/>
        </linearGradient>
    </defs>
</svg>