<svg width="24" height="24" viewBox="0 0 24 24" fill="none" xmlns="http://www.w3.org/2000/svg">
    <path d="M21.7479 20.5745L16.0096 14.8274C17.1409 13.4696 17.8213 11.7344 17.8213 9.8392C17.8213 5.51554 14.2758 2 9.91475 2C5.55364 2 2 5.51964 2 9.8433C2 14.167 5.54545 17.6825 9.90655 17.6825C11.7592 17.6825 13.4643 17.0467 14.8169 15.9842L20.5757 21.7477C20.9118 22.0841 21.4118 22.0841 21.7479 21.7477C22.084 21.4113 22.084 20.9109 21.7479 20.5745ZM3.6805 9.8433C3.6805 6.44672 6.47587 3.68598 9.90655 3.68598C13.3372 3.68598 16.1326 6.44672 16.1326 9.8433C16.1326 13.2399 13.3372 16.0006 9.90655 16.0006C6.47587 16.0006 3.6805 13.2358 3.6805 9.8433Z" fill="#565656"/>
</svg>